<?xml version="1.0" encoding="utf-8"?><svg version="1.1" id="Layer_1" xmlns="http://www.w3.org/2000/svg" xmlns:xlink="http://www.w3.org/1999/xlink" x="0px" y="0px" viewBox="0 0 122.88 100.38" style="enable-background:new 0 0 122.88 100.38" xml:space="preserve"><style type="text/css">.st0{fill-rule:evenodd;clip-rule:evenodd;}</style><g><path class="st0" d="M112.29,94.62v3.93c0,1.01-0.82,1.84-1.84,1.84H11.93c-1.01,0-1.84-0.82-1.84-1.84V51.67 c-2.06,0.79-3.97,0.8-5.57,0.27c-1.25-0.42-2.3-1.17-3.07-2.15c-0.77-0.97-1.26-2.16-1.41-3.46C-0.18,44.3,0.43,42,2.15,39.85l0,0 c0.09-0.11,0.19-0.21,0.3-0.3L60.05,0.48c0.65-0.6,1.65-0.66,2.37-0.1l57.71,38.99l0,0c0.08,0.06,0.15,0.13,0.22,0.2 c2.32,2.5,2.9,5.27,2.34,7.62c-0.28,1.15-0.83,2.2-1.59,3.05c-0.76,0.86-1.73,1.52-2.84,1.92c-1.76,0.64-3.84,0.61-5.96-0.39 L112.29,94.62L112.29,94.62L112.29,94.62L112.29,94.62z M51.22,81.21c4.32,12.71,16.65,12.33,20.45,0 c3.7,3.32,14.63,3.99,18.7,6.26c1.29,0.72,2.45,1.63,3.38,2.87c1.1,1.45,1.87,3.25,2.27,5.43h11.65V49.62 c0-0.12,0.01-0.24,0.03-0.35L61.62,18.58l-46.96,30.7c0.04,0.15,0.06,0.31,0.06,0.47v46.01h12.14c0.4-2.18,1.17-3.98,2.27-5.43 c0.94-1.24,2.1-2.15,3.39-2.87C36.58,85.2,47.52,84.53,51.22,81.21L51.22,81.21L51.22,81.21z M48.18,61.48 c0.54,0.22,1.1,0.27,1.68,0.15l-0.8-6.38c0.41-1.58,1.04-2.81,1.88-3.71c0.87-0.94,1.97-1.53,3.28-1.78 c1.74-0.12,2.26,1.14,3.99,2.25c5.27,3.37,9.72,4.5,16.24,4.58l-1.06,5.34c0.28,0.02,0.56,0.02,0.84-0.01 c0.08,0.02,0.16,0.02,0.24,0.02c1.2-0.11,1.93,0.02,2.15,0.46c0.28,0.56,0.06,1.64-0.7,3.38l-3.57,5.87 c-1.33,2.19-2.68,4.38-4.39,5.99c-1.66,1.55-3.7,2.59-6.5,2.58c-2.58-0.01-4.54-1-6.15-2.47c-1.66-1.52-3-3.58-4.27-5.61 l-3.16-5.03h0l-0.01-0.02c-0.99-1.47-1.5-2.75-1.53-3.73c-0.01-0.35,0.04-0.65,0.16-0.9c0.11-0.23,0.27-0.43,0.5-0.58 C47.28,61.68,47.68,61.54,48.18,61.48L48.18,61.48L48.18,61.48z M76.61,60.57l0.2-8.34c-0.24-3.33-1.34-5.85-3.1-7.75 c-4.31-4.66-12.36-5.86-18.43-3.67c-1.02,0.37-1.99,0.84-2.87,1.4c-2.51,1.6-4.53,3.92-5.34,6.81c-0.19,0.68-0.32,1.37-0.39,2.05 c-0.13,2.92-0.05,6.42,0.16,9.17c-0.26,0.1-0.5,0.22-0.71,0.36c-0.47,0.32-0.82,0.72-1.04,1.21c-0.22,0.47-0.32,1-0.3,1.59 c0.04,1.27,0.63,2.83,1.78,4.53l3.16,5.02c1.33,2.11,2.72,4.26,4.54,5.92c1.87,1.71,4.15,2.87,7.18,2.88 c3.25,0.01,5.62-1.19,7.55-3c1.87-1.75,3.28-4.04,4.66-6.31l3.6-5.93c0.02-0.03,0.03-0.06,0.05-0.09l0,0 c0.97-2.2,1.18-3.71,0.69-4.71C77.71,61.15,77.25,60.77,76.61,60.57L76.61,60.57L76.61,60.57z"/></g></svg>